<?xml version="1.0" encoding="utf-8"?>
<!-- Uploaded to: SVG Repo, www.svgrepo.com, Generator: SVG Repo Mixer Tools -->
<svg width="800px" height="800px" viewBox="0 0 1024 1024" class="icon"  version="1.1" xmlns="http://www.w3.org/2000/svg"><path d="M127.92005 991.348407c5.820362 18.324547 14.295066 31.980012 31.980012 31.980013h703.560275c17.684947 0 26.51143-14.071205 31.980013-31.980013l63.960025-255.8401H63.960025l63.960025 255.8401z" fill="#434854" /><path d="M511.6802 383.72817c-282.60737 0-511.6802 157.501562-511.6802 351.780137a63.960025 63.960025 0 0 0 127.92005 0 63.960025 63.960025 0 0 0 127.92005 0 63.960025 63.960025 0 0 0 127.92005 0 63.960025 63.960025 0 0 0 127.92005 0 63.960025 63.960025 0 0 0 127.92005 0 63.960025 63.960025 0 0 0 127.92005 0 63.960025 63.960025 0 0 0 127.92005 0 63.960025 63.960025 0 0 0 127.92005 0c0-194.278576-229.072829-351.780137-511.6802-351.780137z" fill="#EACA44" /><path d="M511.6802 31.948032a31.980012 31.980012 0 1 0-63.960025 0c0 56.476702 27.470831 95.940037 27.470831 95.940038S511.6802 179.37589 511.6802 223.828107c0 44.963898-21.458588 78.223111-21.458589 78.223111-13.527545 17.716927-13.239725 28.238351-0.89544 40.902436 14.359026 14.774766 36.840974 9.785884 51.32792-13.719425 0 0 34.986134-49.473079 34.986134-105.438102 0-49.473079-31.980012-95.940037-31.980013-95.940037s-31.980012-47.938039-31.980012-95.908058zM319.800125 31.948032a31.980012 31.980012 0 1 0-63.960025 0c0 56.476702 27.470831 95.940037 27.470831 95.940038S319.800125 179.37589 319.800125 223.828107c0 44.963898-21.458588 78.223111-21.458588 78.223111-13.527545 17.716927-13.239725 28.238351-0.895441 40.902436 14.359026 14.774766 36.840974 9.785884 51.32792-13.719425 0 0 34.986134-49.473079 34.986134-105.438102 0-49.473079-31.980012-95.940037-31.980013-95.940037s-31.980012-47.938039-31.980012-95.908058zM735.540287 127.88807s-31.980012-47.970019-31.980012-95.940038a31.980012 31.980012 0 1 0-63.960025 0c0 56.476702 27.470831 95.940037 27.470831 95.940038S703.560275 179.37589 703.560275 223.828107c0 44.963898-21.458588 78.223111-21.458589 78.223111-13.527545 17.716927-13.239725 28.238351-0.89544 40.902436 14.359026 14.774766 36.840974 9.785884 51.32792-13.719425 0 0 34.986134-49.473079 34.986134-105.438102 0-49.409119-31.980012-95.908057-31.980013-95.908057z" fill="#E6E6E6" /><path d="M479.700187 511.64822a63.960025 31.980012 90 1 0 63.960025 0 63.960025 31.980012 90 1 0-63.960025 0Z" fill="" /><path d="M611.910799 493.383273a63.960025 31.980012 60.009 1 0 55.396029-31.971311 63.960025 31.980012 60.009 1 0-55.396029 31.971311Z" fill="" /><path d="M351.786905 532.76056a31.948032 63.960025 29.993 1 0 63.94649-110.789827 31.948032 63.960025 29.993 1 0-63.94649 110.789827Z" fill="" /><path d="M79.406371 797.389631l7.419363 29.677452A63.800125 63.800125 0 0 0 127.92005 767.48832a63.960025 63.960025 0 0 0 127.92005 0 63.960025 63.960025 0 0 0 127.92005 0 63.960025 63.960025 0 0 0 127.92005 0 63.960025 63.960025 0 0 0 127.92005 0 63.960025 63.960025 0 0 0 127.92005 0 63.960025 63.960025 0 0 0 127.92005 0c0 27.246971 17.077327 50.33654 41.062336 59.546783l7.419363-29.677452A63.800125 63.800125 0 0 1 895.44035 735.508307a63.960025 63.960025 0 0 1-127.92005 0 63.960025 63.960025 0 0 1-127.92005 0 63.960025 63.960025 0 0 1-127.92005 0 63.960025 63.960025 0 0 1-127.92005 0 63.960025 63.960025 0 0 1-127.92005 0 63.960025 63.960025 0 0 1-127.92005 0c0 29.965272-20.659088 54.909681-48.513679 61.881324z" fill="" /></svg>