<?xml version="1.0" encoding="iso-8859-1"?>
<!-- Uploaded to: SVG Repo, www.svgrepo.com, Generator: SVG Repo Mixer Tools -->
<svg height="800px" width="800px" version="1.1" id="Layer_1" xmlns="http://www.w3.org/2000/svg" xmlns:xlink="http://www.w3.org/1999/xlink" 
	 viewBox="0 0 512 512" xml:space="preserve">
<polygon style="fill:#63A2AE;" points="137.562,220.889 154.363,504.396 357.637,504.396 374.438,220.889 "/>
<path style="fill:#F6E088;" d="M374.438,189.274c0-65.412-53.027-118.438-118.438-118.438s-118.438,53.027-118.438,118.438h-23.517
	v31.616h283.911v-31.616H374.438z"/>
<path style="fill:#CF691C;" d="M256,307.032c-36.312,0-65.751,29.437-65.751,65.75v39.692h30.416v-39.692
	c0-19.483,15.852-35.334,35.335-35.334s35.335,15.851,35.335,35.334v39.692h30.416v-39.692
	C321.751,336.469,292.311,307.032,256,307.032z"/>
<g>
	<path style="fill:#491E17;" d="M405.56,181.67h-23.744c-3.529-58.998-47.827-107.187-105.032-116.719V0h-41.568v64.951
		c-57.205,9.532-101.503,57.722-105.032,116.719H106.44v46.824h23.953L147.197,512h217.606l16.803-283.507h23.953L405.56,181.67
		L405.56,181.67z M250.424,15.208h11.152v48.151c-1.849-0.081-3.707-0.128-5.576-0.128c-1.87,0-3.727,0.047-5.576,0.128V15.208z
		 M250.424,228.493h11.152v28.332h-11.152V228.493z M250.424,213.285V78.578c1.847-0.092,3.707-0.14,5.576-0.14
		c1.87,0,3.729,0.048,5.576,0.14v134.707H250.424z M121.648,213.285v-16.408h15.913h7.604h27.699v-15.208h-27.432
		c3.445-50.596,40.994-91.973,89.785-101.268v132.884H129.493L121.648,213.285L121.648,213.285z M161.529,496.792l-13.32-224.758
		h29.721v-15.208h-30.623l-1.679-28.332h89.587v28.332h-37.005v15.208h37.005h41.568h87.006l-13.319,224.758H161.529z
		 M364.691,256.826h-87.907v-28.332h89.586L364.691,256.826z M390.352,213.285h-7.844H276.784V80.401
		c48.79,9.295,86.338,50.672,89.785,101.268h-27.436v15.208h27.702h7.6h15.917v16.408H390.352z"/>
	<path style="fill:#491E17;" d="M256,299.428c-40.448,0-73.355,32.907-73.355,73.354v47.296h45.624v-47.296
		c0-15.291,12.44-27.73,27.731-27.73s27.731,12.44,27.731,27.73v47.296h45.624v-47.296C329.355,332.335,296.448,299.428,256,299.428
		z M314.147,404.869h-15.208v-32.088c0-23.677-19.262-42.938-42.939-42.938s-42.939,19.262-42.939,42.938v32.088h-15.208v-32.088
		c0-32.062,26.085-58.146,58.147-58.146s58.147,26.085,58.147,58.146V404.869z"/>
</g>
</svg>